<svg width="800" height="200" viewBox="0 0 800 200" xmlns="http://www.w3.org/2000/svg">
  <defs>
    <style>@import url('https://fonts.googleapis.com/css2?family=Press+Start+2P&amp;display=swap');</style>
  </defs>

  <rect width="800" height="200" fill="#0a0a0f"/>

  <rect x="0" y="0" width="800" height="4" fill="#00F2FF"/>
  <rect x="0" y="196" width="800" height="4" fill="#00F2FF"/>
  <rect x="0" y="0" width="4" height="200" fill="#00F2FF"/>
  <rect x="796" y="0" width="4" height="200" fill="#00F2FF"/>

  <rect x="4" y="4" width="14" height="14" fill="#00F2FF"/>
  <rect x="782" y="4" width="14" height="14" fill="#00F2FF"/>
  <rect x="4" y="182" width="14" height="14" fill="#00F2FF"/>
  <rect x="782" y="182" width="14" height="14" fill="#00F2FF"/>

  <rect x="18" y="4" width="4" height="4" fill="#00F2FF" opacity="0.4"/>
  <rect x="778" y="4" width="4" height="4" fill="#00F2FF" opacity="0.4"/>
  <rect x="18" y="192" width="4" height="4" fill="#00F2FF" opacity="0.4"/>
  <rect x="778" y="192" width="4" height="4" fill="#00F2FF" opacity="0.4"/>

  <text x="400" y="62" text-anchor="middle" font-family="'Press Start 2P', monospace" font-size="26" fill="#00F2FF" letter-spacing="10">BOBILOVEU</text>

  <rect x="40" y="78" width="720" height="2" fill="#003a40"/>

  <text x="56" y="112" font-family="'Press Start 2P', monospace" font-size="9" fill="#00F2FF" letter-spacing="1">STATUS</text>
  <text x="175" y="112" font-family="'Press Start 2P', monospace" font-size="9" fill="#2a5a60" letter-spacing="1">//  building something</text>

  <text x="56" y="138" font-family="'Press Start 2P', monospace" font-size="9" fill="#00F2FF" letter-spacing="1">MOOD</text>
  <text x="175" y="138" font-family="'Press Start 2P', monospace" font-size="9" fill="#2a5a60" letter-spacing="1">//  between idea &amp; code</text>

  <text x="56" y="164" font-family="'Press Start 2P', monospace" font-size="9" fill="#00F2FF" letter-spacing="1">COFFEE</text>
  <text x="175" y="164" font-family="'Press Start 2P', monospace" font-size="9" fill="#00F2FF" letter-spacing="2">████████░░</text>
  <text x="370" y="164" font-family="'Press Start 2P', monospace" font-size="9" fill="#2a5a60" letter-spacing="1">80%</text>

  <rect x="4" y="4" width="792" height="192" fill="none" stroke="#003a40" stroke-width="1"/>
</svg>
